<svg xmlns="http://www.w3.org/2000/svg" xmlns:xlink="http://www.w3.org/1999/xlink" width="504.715" height="323.674" viewBox="0 0 504.715 323.674"><defs><clipPath id="clip-path"><rect id="Rectangle_3515" data-name="Rectangle 3515" width="504.715" height="323.674" fill="none"></rect></clipPath><clipPath id="clip-path-5"><rect id="Rectangle_3514" data-name="Rectangle 3514" width="74.63" height="74.63" fill="#fff"></rect></clipPath></defs><g id="Group_9768" data-name="Group 9768" transform="translate(-315.903 -860.361)"><g id="Group_9247" data-name="Group 9247" transform="translate(315.903 860.361)"><path id="Path_47383" data-name="Path 47383" d="M457.064,302.121,479.3,281.412l-7.735,41.281-14.5-20.572" transform="translate(-115.871 -71.341)" fill="none" stroke="#fff" stroke-miterlimit="10" stroke-width="0.25"></path><path id="Path_47384" data-name="Path 47384" d="M428.535,171.044l7.685-29.4,15.581,39-23.266-9.6" transform="translate(-108.639 -35.909)" fill="none" stroke="#fff" stroke-miterlimit="10" stroke-width="0.25"></path><g id="Group_9240" data-name="Group 9240"><g id="Group_9239" data-name="Group 9239" clip-path="url(#clip-path)"><path id="Path_47385" data-name="Path 47385" d="M478.053,337.608a3.406,3.406,0,1,1-.666-4.771,3.406,3.406,0,0,1,.666,4.771" transform="translate(-119.639 -84.204)" fill="#bbe4f9"></path><path id="Path_47386" data-name="Path 47386" d="M488.415,282.308a3.406,3.406,0,1,1-.666-4.771,3.406,3.406,0,0,1,.666,4.771" transform="translate(-122.266 -70.185)" fill="#bbe4f9"></path><path id="Path_47387" data-name="Path 47387" d="M461.94,193.013a3.406,3.406,0,1,1-3.118-3.672,3.407,3.407,0,0,1,3.118,3.672" transform="translate(-115.383 -47.997)" fill="#bbe4f9"></path><path id="Path_47388" data-name="Path 47388" d="M430.773,180.148a3.406,3.406,0,1,1-3.118-3.672,3.407,3.407,0,0,1,3.118,3.672" transform="translate(-107.482 -44.736)" fill="#bbe4f9"></path><path id="Path_47389" data-name="Path 47389" d="M583.672,117.711a3.406,3.406,0,1,1-3.945-2.764,3.406,3.406,0,0,1,3.945,2.764" transform="translate(-146.254 -29.127)" fill="#bbe4f9"></path><path id="Path_47390" data-name="Path 47390" d="M577.835,327.662a6.285,6.285,0,1,1-7.28-5.1,6.285,6.285,0,0,1,7.28,5.1" transform="translate(-143.325 -81.749)" fill="#bbe4f9"></path><path id="Path_47391" data-name="Path 47391" d="M248.412,215.556a6.285,6.285,0,1,1-7.28-5.1,6.285,6.285,0,0,1,7.28,5.1" transform="translate(-59.813 -53.329)" fill="#bbe4f9"></path><path id="Path_47392" data-name="Path 47392" d="M554.283,417.363a3.406,3.406,0,1,1-3.945-2.764,3.406,3.406,0,0,1,3.945,2.764" transform="translate(-138.803 -105.093)" fill="#bbe4f9"></path><path id="Path_47393" data-name="Path 47393" d="M664.505,382.79a6.285,6.285,0,1,1-7.28-5.1,6.286,6.286,0,0,1,7.28,5.1" transform="translate(-165.297 -95.724)" fill="#bbe4f9"></path><path id="Path_47394" data-name="Path 47394" d="M342.167,202.236a3.406,3.406,0,1,1-3.945-2.764,3.406,3.406,0,0,1,3.945,2.764" transform="translate(-85.029 -50.555)" fill="#bbe4f9"></path><path id="Path_47395" data-name="Path 47395" d="M214.194,228.263a6.285,6.285,0,1,1-7.28-5.1,6.285,6.285,0,0,1,7.28,5.1" transform="translate(-51.138 -56.55)" fill="#bbe4f9"></path><path id="Path_47396" data-name="Path 47396" d="M459.262,307.407a3.406,3.406,0,1,1-3.945-2.764,3.406,3.406,0,0,1,3.945,2.764" transform="translate(-114.714 -77.217)" fill="#bbe4f9"></path><path id="Path_47397" data-name="Path 47397" d="M394.306,210.25a6.285,6.285,0,1,1-7.279-5.1,6.285,6.285,0,0,1,7.279,5.1" transform="translate(-96.799 -51.984)" fill="#bbe4f9"></path><path id="Path_47398" data-name="Path 47398" d="M439.86,138.312a3.406,3.406,0,1,1-3.945-2.764,3.406,3.406,0,0,1,3.945,2.764" transform="translate(-109.796 -34.35)" fill="#bbe4f9"></path><path id="Path_47399" data-name="Path 47399" d="M261.074,285.881a3.406,3.406,0,1,1-3.945-2.764,3.406,3.406,0,0,1,3.945,2.764" transform="translate(-64.471 -71.76)" fill="#bbe4f9"></path><path id="Path_47400" data-name="Path 47400" d="M320.577,261.717a3.406,3.406,0,1,1-3.945-2.764,3.406,3.406,0,0,1,3.945,2.764" transform="translate(-79.556 -65.634)" fill="#bbe4f9"></path></g></g><g id="Group_9242" data-name="Group 9242"><g id="Group_9241" data-name="Group 9241" clip-path="url(#clip-path)"><path id="Path_47401" data-name="Path 47401" d="M276.609,187.77a4.443,4.443,0,1,1-4.443-4.443,4.443,4.443,0,0,1,4.443,4.443" transform="translate(-67.871 -46.476)" fill="#5cc5ff"></path><path id="Path_47402" data-name="Path 47402" d="M297.518,42.2a2.625,2.625,0,1,1-2.625-2.625,2.626,2.626,0,0,1,2.625,2.625" transform="translate(-74.093 -10.033)" fill="#5cc5ff"></path><path id="Path_47403" data-name="Path 47403" d="M41.307,355.515a4.046,4.046,0,1,1-4.047-4.047,4.047,4.047,0,0,1,4.047,4.047" transform="translate(-8.42 -89.101)" fill="#5cc5ff"></path><path id="Path_47404" data-name="Path 47404" d="M126.294,274.791a3.011,3.011,0,1,1-3.011-3.011,3.011,3.011,0,0,1,3.011,3.011" transform="translate(-30.49 -68.9)" fill="#5cc5ff"></path><path id="Path_47405" data-name="Path 47405" d="M93.659,208.331a3.064,3.064,0,1,1-3.064-3.064,3.064,3.064,0,0,1,3.064,3.064" transform="translate(-22.19 -52.038)" fill="#5cc5ff"></path><path id="Path_47406" data-name="Path 47406" d="M82.349,123.855a2.007,2.007,0,1,1-2.007-2.007,2.007,2.007,0,0,1,2.007,2.007" transform="translate(-19.859 -30.89)" fill="#5cc5ff"></path><path id="Path_47407" data-name="Path 47407" d="M153.716,43.778a4.272,4.272,0,1,1-4.272-4.272,4.272,4.272,0,0,1,4.272,4.272" transform="translate(-36.803 -10.015)" fill="#5cc5ff"></path><path id="Path_47408" data-name="Path 47408" d="M411.433,277.474a2.777,2.777,0,1,1-2.776-2.776,2.776,2.776,0,0,1,2.776,2.776" transform="translate(-102.896 -69.639)" fill="#5cc5ff"></path><path id="Path_47409" data-name="Path 47409" d="M344.242,307.371a1.945,1.945,0,1,1-1.945-1.945,1.944,1.944,0,0,1,1.945,1.945" transform="translate(-86.284 -77.429)" fill="#5cc5ff"></path><path id="Path_47410" data-name="Path 47410" d="M594.56,192.26a4.412,4.412,0,1,1-4.412-4.412,4.412,4.412,0,0,1,4.412,4.412" transform="translate(-148.491 -47.622)" fill="#5cc5ff"></path><path id="Path_47411" data-name="Path 47411" d="M673.246,28.456a4.23,4.23,0,1,1-4.23-4.23,4.23,4.23,0,0,1,4.23,4.23" transform="translate(-168.532 -6.142)" fill="#5cc5ff"></path><path id="Path_47412" data-name="Path 47412" d="M490.888,27.388a4.033,4.033,0,1,1-4.032-4.033,4.032,4.032,0,0,1,4.032,4.033" transform="translate(-122.402 -5.921)" fill="#5cc5ff"></path></g></g><g id="Group_9244" data-name="Group 9244"><g id="Group_9243" data-name="Group 9243" clip-path="url(#clip-path)"><path id="Path_47413" data-name="Path 47413" d="M585.672,251.072a1.939,1.939,0,1,0,1.5-2.3,1.939,1.939,0,0,0-1.5,2.3" transform="translate(-148.464 -63.057)" fill="#2e3191"></path><path id="Path_47414" data-name="Path 47414" d="M548.1,264.569a1.939,1.939,0,1,0,2.728.284,1.939,1.939,0,0,0-2.728-.284" transform="translate(-138.769 -66.962)" fill="#2e3191"></path><path id="Path_47415" data-name="Path 47415" d="M557.058,223.919a1.939,1.939,0,1,0,2.728.284,1.939,1.939,0,0,0-2.728-.284" transform="translate(-141.039 -56.656)" fill="#2e3191"></path><path id="Path_47416" data-name="Path 47416" d="M586.72,284.027a1.939,1.939,0,1,0,1.5-2.3,1.939,1.939,0,0,0-1.5,2.3" transform="translate(-148.73 -71.411)" fill="#2e3191"></path><path id="Path_47417" data-name="Path 47417" d="M284.07,425.3a1.939,1.939,0,1,0,2.728.284,1.939,1.939,0,0,0-2.728-.284" transform="translate(-71.833 -107.71)" fill="#2e3191"></path><path id="Path_47418" data-name="Path 47418" d="M319.886,420.118a1.939,1.939,0,1,0,2.728.284,1.939,1.939,0,0,0-2.728-.284" transform="translate(-80.913 -106.395)" fill="#2e3191"></path><path id="Path_47419" data-name="Path 47419" d="M317.288,389.96a1.939,1.939,0,1,0,2.728.284,1.939,1.939,0,0,0-2.728-.284" transform="translate(-80.255 -98.75)" fill="#2e3191"></path><path id="Path_47420" data-name="Path 47420" d="M180.865,387.362a1.939,1.939,0,1,0,2.728.284,1.939,1.939,0,0,0-2.728-.284" transform="translate(-45.67 -98.091)" fill="#2e3191"></path><path id="Path_47421" data-name="Path 47421" d="M268.7,396.184a1.939,1.939,0,1,0,2.728.284,1.939,1.939,0,0,0-2.728-.284" transform="translate(-67.938 -100.327)" fill="#2e3191"></path><path id="Path_47422" data-name="Path 47422" d="M214.676,405.463a1.939,1.939,0,1,0,2.728.284,1.939,1.939,0,0,0-2.728-.284" transform="translate(-54.241 -102.68)" fill="#2e3191"></path><path id="Path_47423" data-name="Path 47423" d="M221.707,426.236a1.939,1.939,0,1,0,2.728.284,1.939,1.939,0,0,0-2.728-.284" transform="translate(-56.024 -107.946)" fill="#2e3191"></path><path id="Path_47424" data-name="Path 47424" d="M228.688,366.663a1.939,1.939,0,1,0,2.728.284,1.939,1.939,0,0,0-2.728-.284" transform="translate(-57.793 -92.844)" fill="#2e3191"></path><path id="Path_47425" data-name="Path 47425" d="M136.307,362.251a1.939,1.939,0,1,0,2.728.284,1.939,1.939,0,0,0-2.728-.284" transform="translate(-34.374 -91.725)" fill="#2e3191"></path><path id="Path_47426" data-name="Path 47426" d="M176.356,373.324a1.939,1.939,0,1,0,2.727.284,1.939,1.939,0,0,0-2.727-.284" transform="translate(-44.526 -94.532)" fill="#2e3191"></path><path id="Path_47427" data-name="Path 47427" d="M87.628,239.959a1.939,1.939,0,1,0,2.728.284,1.939,1.939,0,0,0-2.728-.284" transform="translate(-22.033 -60.723)" fill="#2e3191"></path><path id="Path_47428" data-name="Path 47428" d="M201.319,355.318a1.939,1.939,0,1,0,2.728.284,1.939,1.939,0,0,0-2.728-.284" transform="translate(-50.855 -89.967)" fill="#2e3191"></path><path id="Path_47429" data-name="Path 47429" d="M210.735,312.768a1.939,1.939,0,1,0,2.728.284,1.939,1.939,0,0,0-2.728-.284" transform="translate(-53.242 -79.181)" fill="#2e3191"></path><path id="Path_47430" data-name="Path 47430" d="M116.5,373.324a1.939,1.939,0,1,0,2.728.284,1.939,1.939,0,0,0-2.728-.284" transform="translate(-29.351 -94.532)" fill="#2e3191"></path><path id="Path_47431" data-name="Path 47431" d="M107.213,258.571a1.939,1.939,0,1,0,2.728.284,1.939,1.939,0,0,0-2.728-.284" transform="translate(-26.998 -65.441)" fill="#2e3191"></path><path id="Path_47432" data-name="Path 47432" d="M82.946,258.571a1.939,1.939,0,1,0,2.728.284,1.939,1.939,0,0,0-2.728-.284" transform="translate(-20.846 -65.441)" fill="#2e3191"></path><path id="Path_47433" data-name="Path 47433" d="M172.155,401.573a1.939,1.939,0,1,0,2.728.284,1.939,1.939,0,0,0-2.728-.284" transform="translate(-43.462 -101.694)" fill="#2e3191"></path><path id="Path_47434" data-name="Path 47434" d="M35.049,302.041a1.939,1.939,0,1,0,2.728.284,1.939,1.939,0,0,0-2.728-.284" transform="translate(-8.704 -76.461)" fill="#2e3191"></path><path id="Path_47435" data-name="Path 47435" d="M25.391,160.167a1.939,1.939,0,1,0,2.728.284,1.939,1.939,0,0,0-2.728-.284" transform="translate(-6.255 -40.494)" fill="#2e3191"></path><path id="Path_47436" data-name="Path 47436" d="M16.634,121.24a1.939,1.939,0,1,0,2.727.284,1.94,1.94,0,0,0-2.727-.284" transform="translate(-4.035 -30.626)" fill="#2e3191"></path><path id="Path_47437" data-name="Path 47437" d="M16.634,365.006a1.939,1.939,0,1,0,2.727.284,1.94,1.94,0,0,0-2.727-.284" transform="translate(-4.035 -92.424)" fill="#2e3191"></path><path id="Path_47438" data-name="Path 47438" d="M359.464,341.849a1.939,1.939,0,1,0,2.728.284,1.939,1.939,0,0,0-2.728-.284" transform="translate(-90.947 -86.553)" fill="#2e3191"></path><path id="Path_47439" data-name="Path 47439" d="M520.809,100.7a1.939,1.939,0,1,0,2.728.284,1.939,1.939,0,0,0-2.728-.284" transform="translate(-131.85 -25.418)" fill="#2e3191"></path><path id="Path_47440" data-name="Path 47440" d="M497.163,88.395a1.939,1.939,0,1,0,2.728.284,1.939,1.939,0,0,0-2.728-.284" transform="translate(-125.855 -22.299)" fill="#2e3191"></path><path id="Path_47441" data-name="Path 47441" d="M501.759,118.553a1.939,1.939,0,1,0,2.728.284,1.939,1.939,0,0,0-2.728-.284" transform="translate(-127.02 -29.945)" fill="#2e3191"></path><path id="Path_47442" data-name="Path 47442" d="M401.366,245.992a1.939,1.939,0,1,0,2.728.284,1.939,1.939,0,0,0-2.728-.284" transform="translate(-101.569 -62.252)" fill="#2e3191"></path><path id="Path_47443" data-name="Path 47443" d="M427.332,239.225a1.939,1.939,0,1,0,2.728.284,1.939,1.939,0,0,0-2.728-.284" transform="translate(-108.152 -60.536)" fill="#2e3191"></path><path id="Path_47444" data-name="Path 47444" d="M404.588,277.756a1.939,1.939,0,1,0,2.728.284,1.939,1.939,0,0,0-2.728-.284" transform="translate(-102.386 -70.305)" fill="#2e3191"></path><path id="Path_47445" data-name="Path 47445" d="M543.512,231.9a1.939,1.939,0,1,0,2.728.284,1.939,1.939,0,0,0-2.728-.284" transform="translate(-137.605 -58.68)" fill="#2e3191"></path><path id="Path_47446" data-name="Path 47446" d="M663.544,236.627a1.939,1.939,0,1,0,2.728.284,1.939,1.939,0,0,0-2.728-.284" transform="translate(-168.035 -59.878)" fill="#2e3191"></path><path id="Path_47447" data-name="Path 47447" d="M646.353,233.24a1.939,1.939,0,1,0,2.728.284,1.939,1.939,0,0,0-2.728-.284" transform="translate(-163.677 -59.019)" fill="#2e3191"></path><path id="Path_47448" data-name="Path 47448" d="M434.392,407.023a1.939,1.939,0,1,0,2.728.284,1.939,1.939,0,0,0-2.728-.284" transform="translate(-109.942 -103.075)" fill="#2e3191"></path><path id="Path_47449" data-name="Path 47449" d="M406.671,428.834a1.939,1.939,0,1,0,2.728.284,1.939,1.939,0,0,0-2.728-.284" transform="translate(-102.914 -108.605)" fill="#2e3191"></path><path id="Path_47450" data-name="Path 47450" d="M460.824,391.042a1.939,1.939,0,1,0,2.728.284,1.939,1.939,0,0,0-2.728-.284" transform="translate(-116.643 -99.024)" fill="#2e3191"></path><path id="Path_47451" data-name="Path 47451" d="M479.74,379.651a1.939,1.939,0,1,0,2.728.284,1.939,1.939,0,0,0-2.728-.284" transform="translate(-121.438 -96.136)" fill="#2e3191"></path><path id="Path_47452" data-name="Path 47452" d="M432.528,377.053a1.939,1.939,0,1,0,2.728.284,1.939,1.939,0,0,0-2.728-.284" transform="translate(-109.469 -95.478)" fill="#2e3191"></path><path id="Path_47453" data-name="Path 47453" d="M458.227,364.849a1.939,1.939,0,1,0,2.728.284,1.939,1.939,0,0,0-2.728-.284" transform="translate(-115.984 -92.384)" fill="#2e3191"></path><path id="Path_47454" data-name="Path 47454" d="M397.865,299.444a1.939,1.939,0,1,0,2.728.284,1.939,1.939,0,0,0-2.728-.284" transform="translate(-100.682 -75.803)" fill="#2e3191"></path><path id="Path_47455" data-name="Path 47455" d="M255.12,325.812a1.939,1.939,0,1,0,2.728.284,1.939,1.939,0,0,0-2.728-.284" transform="translate(-64.494 -82.487)" fill="#2e3191"></path><path id="Path_47456" data-name="Path 47456" d="M239.649,263.208a1.939,1.939,0,1,0,2.728.284,1.939,1.939,0,0,0-2.728-.284" transform="translate(-60.572 -66.616)" fill="#2e3191"></path><path id="Path_47457" data-name="Path 47457" d="M239.649,241.31a1.939,1.939,0,1,0,2.728.284,1.939,1.939,0,0,0-2.728-.284" transform="translate(-60.572 -61.065)" fill="#2e3191"></path><path id="Path_47458" data-name="Path 47458" d="M262.164,267.374a1.939,1.939,0,1,0,2.728.284,1.939,1.939,0,0,0-2.728-.284" transform="translate(-66.28 -67.673)" fill="#2e3191"></path><path id="Path_47459" data-name="Path 47459" d="M127.628,281.693a1.939,1.939,0,1,0,2.728.284,1.939,1.939,0,0,0-2.728-.284" transform="translate(-32.174 -71.303)" fill="#2e3191"></path><path id="Path_47460" data-name="Path 47460" d="M127.628,259.795a1.939,1.939,0,1,0,2.728.284,1.939,1.939,0,0,0-2.728-.284" transform="translate(-32.174 -65.751)" fill="#2e3191"></path><path id="Path_47461" data-name="Path 47461" d="M150.143,285.859a1.939,1.939,0,1,0,2.728.284,1.939,1.939,0,0,0-2.728-.284" transform="translate(-37.881 -72.359)" fill="#2e3191"></path><path id="Path_47462" data-name="Path 47462" d="M268.9,2.457a1.939,1.939,0,1,0-.05,2.742,1.939,1.939,0,0,0,.05-2.742" transform="translate(-67.324 -0.472)" fill="#2e3191"></path><path id="Path_47463" data-name="Path 47463" d="M290.72.594a1.939,1.939,0,1,0-.05,2.742,1.939,1.939,0,0,0,.05-2.742" transform="translate(-72.856 0)" fill="#2e3191"></path><path id="Path_47464" data-name="Path 47464" d="M266.667,25.245a1.939,1.939,0,1,0-.05,2.742,1.939,1.939,0,0,0,.05-2.742" transform="translate(-66.758 -6.249)" fill="#2e3191"></path><path id="Path_47465" data-name="Path 47465" d="M426.916,165.29a1.939,1.939,0,1,0,2.728.284,1.939,1.939,0,0,0-2.728-.284" transform="translate(-108.047 -41.793)" fill="#2e3191"></path><path id="Path_47466" data-name="Path 47466" d="M284.07,356.191a1.939,1.939,0,1,0,2.728.284,1.939,1.939,0,0,0-2.728-.284" transform="translate(-71.833 -90.189)" fill="#2e3191"></path><path id="Path_47467" data-name="Path 47467" d="M433.255,135.565a1.939,1.939,0,1,0,2.728.284,1.939,1.939,0,0,0-2.728-.284" transform="translate(-109.654 -34.257)" fill="#2e3191"></path><path id="Path_47468" data-name="Path 47468" d="M286.668,376.946a1.939,1.939,0,1,0,2.728.284,1.939,1.939,0,0,0-2.728-.284" transform="translate(-72.492 -95.45)" fill="#2e3191"></path><path id="Path_47469" data-name="Path 47469" d="M407.044,355.747a1.555,1.555,0,1,0,2.187.227,1.554,1.554,0,0,0-2.187-.227" transform="translate(-103.045 -90.098)" fill="#2e3191"></path><path id="Path_47470" data-name="Path 47470" d="M441.395,326.241a1.555,1.555,0,1,0,2.187.228,1.555,1.555,0,0,0-2.187-.228" transform="translate(-111.753 -82.618)" fill="#2e3191"></path><path id="Path_47471" data-name="Path 47471" d="M447.951,151.64a1.555,1.555,0,1,0,2.187.228,1.555,1.555,0,0,0-2.187-.228" transform="translate(-113.415 -38.354)" fill="#2e3191"></path><path id="Path_47472" data-name="Path 47472" d="M613.052,264.356a1.555,1.555,0,1,0,1.2-1.842,1.555,1.555,0,0,0-1.2,1.842" transform="translate(-155.408 -66.542)" fill="#2e3191"></path><path id="Path_47473" data-name="Path 47473" d="M666.678,265.72a1.555,1.555,0,1,0,2.187.227,1.555,1.555,0,0,0-2.187-.227" transform="translate(-168.865 -67.275)" fill="#2e3191"></path></g></g><path id="Path_47474" data-name="Path 47474" d="M608.032,261.078l-20.814-10.266,1.536,24.988Z" transform="translate(-148.867 -63.584)" fill="none" stroke="#fff" stroke-linejoin="round" stroke-width="0.25"></path><path id="Path_47475" data-name="Path 47475" d="M663.128,259.329l-2.06-21.4L648.234,235.4Z" transform="translate(-164.335 -59.678)" fill="none" stroke="#fff" stroke-linejoin="round" stroke-width="0.25"></path><path id="Path_47476" data-name="Path 47476" d="M548.82,256.427l-3.427-24.386,10.112-5.958Z" transform="translate(-138.264 -57.315)" fill="none" stroke="#fff" stroke-linejoin="round" stroke-width="0.25"></path><path id="Path_47477" data-name="Path 47477" d="M429.245,401.59l-1.391-22.372-19.3,38.654Z" transform="translate(-103.573 -96.136)" fill="none" stroke="#fff" stroke-linejoin="round" stroke-width="0.25"></path><path id="Path_47478" data-name="Path 47478" d="M462.047,386.566l-1.939-19.553,16.06,11.049Z" transform="translate(-116.643 -93.042)" fill="none" stroke="#fff" stroke-linejoin="round" stroke-width="0.25"></path><path id="Path_47479" data-name="Path 47479" d="M428.8,159.918l15.423-10.509L433.53,137.73Z" transform="translate(-108.705 -34.916)" fill="none" stroke="#fff" stroke-linejoin="round" stroke-width="0.25"></path><path id="Path_47480" data-name="Path 47480" d="M342.232,344.013l-56.281,10.706,1.939,15.493Z" transform="translate(-72.492 -87.211)" fill="none" stroke="#fff" stroke-linejoin="round" stroke-width="0.25"></path><path id="Path_47481" data-name="Path 47481" d="M310.748,392.124l1.939,22.513-26.735,3.871Z" transform="translate(-72.492 -99.408)" fill="none" stroke="#fff" stroke-linejoin="round" stroke-width="0.25"></path><path id="Path_47482" data-name="Path 47482" d="M405.652,270.152l-2.4-23.711,19.383-5.051Z" transform="translate(-102.228 -61.195)" fill="none" stroke="#fff" stroke-linejoin="round" stroke-width="0.25"></path><path id="Path_47483" data-name="Path 47483" d="M258.337,262.93,241.53,243.474V259.82Z" transform="translate(-61.231 -61.724)" fill="none" stroke="#fff" stroke-linejoin="round" stroke-width="0.25"></path><path id="Path_47484" data-name="Path 47484" d="M146.316,281.416l-16.807-19.456v16.347Z" transform="translate(-32.832 -66.41)" fill="none" stroke="#fff" stroke-linejoin="round" stroke-width="0.25"></path><path id="Path_47485" data-name="Path 47485" d="M265.929,21,283.885,2.6,267.6,3.989Z" transform="translate(-67.416 -0.659)" fill="none" stroke="#fff" stroke-linejoin="round" stroke-width="0.25"></path><path id="Path_47486" data-name="Path 47486" d="M164.948,393.769l6.5-10.608-33.262-18.745Z" transform="translate(-35.032 -92.384)" fill="none" stroke="#fff" stroke-linejoin="round" stroke-width="0.25"></path><path id="Path_47487" data-name="Path 47487" d="M203.2,346.7l7.03-31.763,33.133,9.737Z" transform="translate(-51.514 -79.839)" fill="none" stroke="#fff" stroke-linejoin="round" stroke-width="0.25"></path><g id="Group_9246" data-name="Group 9246"><g id="Group_9245" data-name="Group 9245" clip-path="url(#clip-path)"><path id="Path_47488" data-name="Path 47488" d="M20.39,152.462,13.738,123.4.125,152.462Z" transform="translate(-0.032 -31.284)" fill="none" stroke="#fff" stroke-linejoin="round" stroke-width="0.25"></path></g></g></g><line id="Line_258" data-name="Line 258" x2="131.415" y2="88.656" transform="translate(452.085 935.133)" fill="none" stroke="#05c7f7" stroke-width="1"></line><line id="Line_261" data-name="Line 261" y1="83" x2="102" transform="translate(467.5 1025.789)" fill="none" stroke="#07829f" stroke-width="1"></line><line id="Line_259" data-name="Line 259" x2="111" y2="63" transform="translate(583.5 1025.789)" fill="none" stroke="#013870" stroke-width="1"></line><line id="Line_260" data-name="Line 260" y1="47" x2="90" transform="translate(593.5 976.789)" fill="none" stroke="#2188bf" stroke-width="1"></line><path id="Path_47379" data-name="Path 47379" d="M45.694,0H19.117a5.829,5.829,0,0,0-5.048,2.914L.78,25.93a5.828,5.828,0,0,0,0,5.828L14.069,54.773a5.829,5.829,0,0,0,5.048,2.914H45.694a5.829,5.829,0,0,0,5.048-2.914L64.03,31.758a5.828,5.828,0,0,0,0-5.828L50.741,2.914A5.829,5.829,0,0,0,45.694,0" transform="translate(419.461 906.289)" fill="#05c7f7"></path><path id="Path_47378" data-name="Path 47378" d="M77.5,0H32.425a9.886,9.886,0,0,0-8.562,4.943L1.324,43.98a9.885,9.885,0,0,0,0,9.885L23.863,92.9a9.886,9.886,0,0,0,8.562,4.943H77.5A9.886,9.886,0,0,0,86.065,92.9L108.6,53.866a9.885,9.885,0,0,0,0-9.885L86.065,4.943A9.886,9.886,0,0,0,77.5,0" transform="translate(528.086 976.422)" fill="#31c1ba"></path><path id="Path_47380" data-name="Path 47380" d="M45.694,0H19.117a5.829,5.829,0,0,0-5.048,2.914L.78,25.93a5.828,5.828,0,0,0,0,5.828L14.069,54.773a5.829,5.829,0,0,0,5.048,2.914H45.694a5.829,5.829,0,0,0,5.048-2.914L64.03,31.758a5.828,5.828,0,0,0,0-5.828L50.741,2.914A5.829,5.829,0,0,0,45.694,0" transform="translate(651.279 947.578)" fill="#2188bf"></path><path id="Path_47381" data-name="Path 47381" d="M45.694,0H19.117a5.829,5.829,0,0,0-5.048,2.914L.78,25.93a5.828,5.828,0,0,0,0,5.828L14.069,54.773a5.829,5.829,0,0,0,5.048,2.914H45.694a5.829,5.829,0,0,0,5.048-2.914L64.03,31.758a5.828,5.828,0,0,0,0-5.828L50.741,2.914A5.829,5.829,0,0,0,45.694,0" transform="translate(428.117 1080.422)" fill="#07829f"></path><path id="Path_47382" data-name="Path 47382" d="M45.694,0H19.117a5.829,5.829,0,0,0-5.048,2.914L.78,25.93a5.828,5.828,0,0,0,0,5.828L14.069,54.773a5.829,5.829,0,0,0,5.048,2.914H45.694a5.829,5.829,0,0,0,5.048-2.914L64.03,31.758a5.828,5.828,0,0,0,0-5.828L50.741,2.914A5.829,5.829,0,0,0,45.694,0" transform="translate(679.701 1066.395)" fill="#013870"></path><g id="Group_9235" data-name="Group 9235" transform="translate(435.437 917.605)"><path id="Path_18776" data-name="Path 18776" d="M74.553,90.907,73.6,95.573a.569.569,0,0,0,.444.671.608.608,0,0,0,.113.011H88.462a.569.569,0,0,0,.568-.569.591.591,0,0,0-.011-.113l-.956-4.666a3.218,3.218,0,0,0-2.454-2.492l-.972-.215a15.486,15.486,0,0,0-6.659,0l-.972.215A3.216,3.216,0,0,0,74.553,90.907Zm3.672-1.6a14.368,14.368,0,0,1,6.166,0l.973.215a2.077,2.077,0,0,1,1.584,1.609l.816,3.983H74.853l.814-3.983a2.078,2.078,0,0,1,1.585-1.61Z" transform="translate(-73.585 -64.179)" fill="#fff"></path><path id="Path_18777" data-name="Path 18777" d="M81.237,87.514a3.9,3.9,0,1,0-3.9-3.9A3.9,3.9,0,0,0,81.237,87.514Zm0-6.666a2.764,2.764,0,1,1-2.763,2.763h0A2.767,2.767,0,0,1,81.237,80.849Z" transform="translate(-73.515 -64.33)" fill="#fff"></path><path id="Path_18778" data-name="Path 18778" d="M105.662,98.97a.569.569,0,0,0,.116-.475l-.956-4.665a3.214,3.214,0,0,0-2.453-2.492l-.972-.216a15.518,15.518,0,0,0-6.659,0l-.972.216a3.216,3.216,0,0,0-2.455,2.492l-.955,4.664a.568.568,0,0,0,.443.671.536.536,0,0,0,.114.012H105.22a.572.572,0,0,0,.441-.208Zm-14.049-.931.817-3.982a2.076,2.076,0,0,1,1.585-1.61l.972-.215a14.372,14.372,0,0,1,6.167,0l.972.215a2.077,2.077,0,0,1,1.584,1.61l.814,3.982Z" transform="translate(-73.273 -64.125)" fill="#fff"></path><path id="Path_18779" data-name="Path 18779" d="M98,82.635a3.9,3.9,0,1,0,3.9,3.9A3.9,3.9,0,0,0,98,82.635ZM98,89.3a2.764,2.764,0,1,1,2.764-2.764h0A2.768,2.768,0,0,1,98,89.3Z" transform="translate(-73.203 -64.276)" fill="#fff"></path><path id="Path_18780" data-name="Path 18780" d="M92.968,73.746a1.618,1.618,0,1,0,1.618,1.618h0A1.619,1.619,0,0,0,92.968,73.746Zm0,2.1a.479.479,0,1,1,.48-.479h0A.48.48,0,0,1,92.968,75.842Z" transform="translate(-73.254 -64.441)" fill="#fff"></path><path id="Path_18781" data-name="Path 18781" d="M88.889,73.746a1.618,1.618,0,1,0,1.618,1.618h0A1.62,1.62,0,0,0,88.889,73.746Zm0,2.1a.479.479,0,1,1,.479-.48h0A.479.479,0,0,1,88.889,75.842Z" transform="translate(-73.33 -64.441)" fill="#fff"></path><path id="Path_18782" data-name="Path 18782" d="M97.048,76.98a1.617,1.617,0,1,0-1.618-1.618h0A1.619,1.619,0,0,0,97.048,76.98Zm0-2.1a.48.48,0,1,1-.479.48h0A.48.48,0,0,1,97.048,74.884Z" transform="translate(-73.178 -64.441)" fill="#fff"></path><path id="Path_18783" data-name="Path 18783" d="M94.235,64.611H78.383a.569.569,0,0,0-.568.568v10.41a.569.569,0,0,0,1,.37l2.194-2.574h3.714v5.8a.569.569,0,0,0,.569.569H98.519l2.193,2.573a.569.569,0,0,0,1-.369V71.544a.569.569,0,0,0-.569-.569H94.8v-5.8a.569.569,0,0,0-.569-.567ZM80.748,72.247a.573.573,0,0,0-.434.2l-1.361,1.6v-8.3H93.666v6.5Zm19.829-.134v8.3l-1.362-1.6a.568.568,0,0,0-.433-.2H85.863V73.385h8.372a.569.569,0,0,0,.569-.569v-.7Z" transform="translate(-73.506 -64.611)" fill="#fff"></path><path id="Path_18784" data-name="Path 18784" d="M87.8,69.115a1.617,1.617,0,1,0-1.618,1.618h0A1.62,1.62,0,0,0,87.8,69.115Zm-2.1,0a.479.479,0,1,1,.479.479h0a.478.478,0,0,1-.479-.479Z" transform="translate(-73.38 -64.557)" fill="#fff"></path><path id="Path_18785" data-name="Path 18785" d="M90.264,70.732a1.618,1.618,0,1,0-1.618-1.618h0A1.62,1.62,0,0,0,90.264,70.732Zm0-2.1a.479.479,0,1,1-.48.479h0A.48.48,0,0,1,90.264,68.636Z" transform="translate(-73.305 -64.557)" fill="#fff"></path><path id="Path_18786" data-name="Path 18786" d="M82.105,67.5a1.618,1.618,0,1,0,1.618,1.618h0A1.62,1.62,0,0,0,82.105,67.5Zm0,2.1a.479.479,0,1,1,.48-.479h0A.48.48,0,0,1,82.105,69.593Z" transform="translate(-73.456 -64.557)" fill="#fff"></path></g><g id="Group_9236" data-name="Group 9236" transform="translate(663.201 955.84)"><path id="Path_18789" data-name="Path 18789" d="M310.171,85.428a.8.8,0,0,0,1.063-.4l.419-.934h2.678l.419.934a.8.8,0,0,0,.734.474.813.813,0,0,0,.329-.071.8.8,0,0,0,.4-1.063l-2.491-5.538a.8.8,0,0,0-1.466,0l-2.49,5.538a.8.8,0,0,0,.4,1.063Zm2.822-4.313.615,1.37h-1.232Z" transform="translate(-294.147 -61.315)" fill="#fff"></path><path id="Path_18790" data-name="Path 18790" d="M318.17,84.695V79.157a.8.8,0,0,0-1.607,0v5.538a.8.8,0,1,0,1.607,0Z" transform="translate(-293.057 -61.315)" fill="#fff"></path><path id="Path_18791" data-name="Path 18791" d="M307.044,91.653h16.434a.8.8,0,0,0,.8-.8V74.416a.8.8,0,0,0-.8-.8h-4.611a.8.8,0,1,0,0,1.606h3.808V90.045H307.848V75.219h3.805a.8.8,0,1,0,0-1.606h-4.61a.8.8,0,0,0-.8.8V90.849a.8.8,0,0,0,.8.8Z" transform="translate(-294.696 -62.068)" fill="#fff"></path><path id="Path_18792" data-name="Path 18792" d="M336.6,81.157a.8.8,0,0,0,0-1.606h-3.323V77.3H336.6a.8.8,0,0,0,0-1.606h-3.323v-1.4a.8.8,0,0,0-.8-.8h-3.01l-1.9-1.905V68.577a.8.8,0,0,0-.8-.8h-1.4V64.453a.8.8,0,0,0-1.607,0v3.321H321.5V64.453a.8.8,0,0,0-1.606,0v3.321h-2.254V64.453a.8.8,0,0,0-1.606,0v3.321h-2.253V64.453a.8.8,0,0,0-1.607,0v3.321h-2.253V64.453a.8.8,0,0,0-1.607,0v3.321h-1.4a.8.8,0,0,0-.8.8v3.009l-1.9,1.905h-3.01a.8.8,0,0,0-.8.8v1.4h-3.32a.8.8,0,1,0,0,1.606h3.32v2.254h-3.32a.8.8,0,1,0,0,1.606h3.32v2.253h-3.32a.8.8,0,1,0,0,1.607h3.32v2.253h-3.32a.8.8,0,1,0,0,1.606h3.32v2.254h-3.32a.8.8,0,1,0,0,1.606h3.32v1.4a.8.8,0,0,0,.8.8h3.01l1.9,1.905v3.009a.8.8,0,0,0,.8.8h1.4v3.322a.8.8,0,1,0,1.606,0v-3.322h2.253v3.322a.8.8,0,0,0,1.607,0v-3.322h2.253v3.322a.8.8,0,0,0,1.606,0v-3.322H319.9v3.322a.8.8,0,0,0,1.606,0v-3.322h2.253v3.322a.8.8,0,0,0,1.607,0v-3.322h1.4a.8.8,0,0,0,.8-.8V96.839l1.9-1.905h3.01a.8.8,0,0,0,.8-.8v-1.4H336.6a.8.8,0,0,0,0-1.606h-3.323V88.876H336.6a.8.8,0,0,0,0-1.607h-3.323V85.017H336.6a.8.8,0,0,0,0-1.607h-3.323V81.157ZM325.958,69.38v1.736H307.727V69.38ZM302.009,75.1h1.736V93.328h-1.736Zm3.342-.47,1.905-1.9h19.172l1.9,1.9V93.8l-1.9,1.905H307.256L305.351,93.8Zm2.375,24.419V97.31h18.231v1.736Zm23.948-5.717h-1.736V75.1h1.736Z" transform="translate(-296.278 -63.65)" fill="#fff"></path><path id="Path_18793" data-name="Path 18793" d="M314.134,75.219h0a.8.8,0,1,0-.808-.8A.8.8,0,0,0,314.139,75.219Z" transform="translate(-293.571 -62.068)" fill="#fff"></path></g><g id="Group_9237" data-name="Group 9237" transform="translate(443.63 1095.238)"><g id="Group_2246" data-name="Group 2246"><g id="Group_2245" data-name="Group 2245"><path id="Path_18794" data-name="Path 18794" d="M556.375,69.308H527.395a2.234,2.234,0,0,0-2.231,2.231V89.931a.558.558,0,0,0,.557.557h32.327a.558.558,0,0,0,.557-.557V71.539A2.234,2.234,0,0,0,556.375,69.308Zm1.116,20.065H526.279V71.539a1.117,1.117,0,0,1,1.116-1.116h28.981a1.117,1.117,0,0,1,1.116,1.116Z" transform="translate(-525.164 -69.308)" fill="#fff"></path></g></g><g id="Group_2248" data-name="Group 2248" transform="translate(0 20.065)"><g id="Group_2247" data-name="Group 2247"><path id="Path_18795" data-name="Path 18795" d="M558.049,86.624H525.721a.558.558,0,0,0-.557.557v2.787a2.233,2.233,0,0,0,2.231,2.229h28.981a2.233,2.233,0,0,0,2.231-2.229V87.181A.558.558,0,0,0,558.049,86.624Zm-.557,3.344a1.116,1.116,0,0,1-1.116,1.115H527.395a1.116,1.116,0,0,1-1.116-1.115V87.739h31.213v2.229Z" transform="translate(-525.164 -86.624)" fill="#fff"></path></g></g><g id="Group_2250" data-name="Group 2250" transform="translate(14.492 22.295)"><g id="Group_2249" data-name="Group 2249"><path id="Path_18796" data-name="Path 18796" d="M541.572,88.548h-3.344a.557.557,0,1,0,0,1.115h3.344a.557.557,0,0,0,0-1.115Z" transform="translate(-537.67 -88.548)" fill="#fff"></path></g></g><g id="Group_2252" data-name="Group 2252" transform="translate(2.229 2.229)"><g id="Group_2251" data-name="Group 2251"><path id="Path_18797" data-name="Path 18797" d="M555.514,71.232H527.645a.558.558,0,0,0-.557.557V89.625a.558.558,0,0,0,.557.557h27.868a.558.558,0,0,0,.557-.557V71.789A.558.558,0,0,0,555.514,71.232Zm-.557,17.836H528.2V72.347h26.754V89.068Z" transform="translate(-527.088 -71.232)" fill="#fff"></path></g></g><g id="Group_2254" data-name="Group 2254" transform="translate(7.803 28.983)"><g id="Group_2253" data-name="Group 2253"><path id="Path_18798" data-name="Path 18798" d="M548.062,94.32H533.57a1.672,1.672,0,0,0,0,3.344h14.492a1.672,1.672,0,1,0,0-3.344Zm0,2.229H533.57a.557.557,0,1,1,0-1.115h14.492a.557.557,0,1,1,0,1.115Z" transform="translate(-531.898 -94.32)" fill="#fff"></path></g></g><g id="Group_2256" data-name="Group 2256" transform="translate(10.033 24.524)"><g id="Group_2255" data-name="Group 2255"><path id="Path_18799" data-name="Path 18799" d="M546.641,94.931c-1.849,0-2.787-1.313-2.787-3.9a.558.558,0,0,0-.557-.557h-5.574a.558.558,0,0,0-.557.557c0,2.589-.937,3.9-2.787,3.9a.557.557,0,0,0,0,1.115h12.262a.557.557,0,1,0,0-1.115Zm-9.547,0a5.339,5.339,0,0,0,1.172-3.344h4.489a5.339,5.339,0,0,0,1.171,3.344Z" transform="translate(-533.822 -90.472)" fill="#fff"></path></g></g><g id="Group_2258" data-name="Group 2258" transform="translate(19.512 11.704)"><g id="Group_2257" data-name="Group 2257"><path id="Path_18800" data-name="Path 18800" d="M549.124,84.126l-1.345-1.345.749-.749a.558.558,0,0,0-.234-.928l-5.574-1.672a.557.557,0,0,0-.693.694L543.7,85.7a.555.555,0,0,0,.4.381.561.561,0,0,0,.531-.147l.788-.788,1.346,1.345a.557.557,0,0,0,.788,0l1.576-1.577A.557.557,0,0,0,549.124,84.126Zm-1.97,1.183-1.226-1.226a.729.729,0,0,0-1.028,0l-.4.4L543.39,80.8l3.688,1.107-.431.431a.632.632,0,0,0,0,.893l1.293,1.292Z" transform="translate(-542.003 -79.409)" fill="#fff"></path></g></g><g id="Group_2260" data-name="Group 2260" transform="translate(7.246 4.459)"><g id="Group_2259" data-name="Group 2259"><path id="Path_18801" data-name="Path 18801" d="M547.581,73.156H531.974a.558.558,0,0,0-.557.557V76.5a.558.558,0,0,0,.557.557h15.606a.558.558,0,0,0,.557-.557V73.713A.558.558,0,0,0,547.581,73.156Zm-.557,2.787H532.532V74.271h14.492Z" transform="translate(-531.417 -73.156)" fill="#fff"></path></g></g><g id="Group_2262" data-name="Group 2262" transform="translate(9.475 10.59)"><g id="Group_2261" data-name="Group 2261"><path id="Path_18802" data-name="Path 18802" d="M538.357,78.447H533.9a.558.558,0,0,0-.557.557v2.229a.558.558,0,0,0,.557.557h4.459a.557.557,0,0,0,.557-.557V79A.558.558,0,0,0,538.357,78.447Zm-.557,2.229h-3.344V79.562H537.8Z" transform="translate(-533.341 -78.447)" fill="#fff"></path></g></g><g id="Group_2264" data-name="Group 2264" transform="translate(7.246 4.459)"><g id="Group_2263" data-name="Group 2263"><path id="Path_18803" data-name="Path 18803" d="M547.581,73.156H531.974a.558.558,0,0,0-.557.557V84.3a.558.558,0,0,0,.557.557h13.269a.558.558,0,0,0,.533-.717l-.7-2.353,2.349.706a.558.558,0,0,0,.717-.534V73.713A.558.558,0,0,0,547.581,73.156Zm-.557,8.057-2.623-.788a.558.558,0,0,0-.694.7l.788,2.626H532.532V74.271h14.492Z" transform="translate(-531.417 -73.156)" fill="#fff"></path></g></g></g><g id="Group_9238" data-name="Group 9238" transform="translate(691.178 1076.344)"><g id="Group_2266" data-name="Group 2266"><path id="Path_18804" data-name="Path 18804" d="M785.419,65.106H755.6a2.591,2.591,0,0,0-2.589,2.588v5.29a.585.585,0,0,0,1.169,0v-5.29a1.421,1.421,0,0,1,1.419-1.419h29.822a1.421,1.421,0,0,1,1.419,1.419V87.576a1.413,1.413,0,0,1-.912,1.326,1.6,1.6,0,0,0-1.423-.829h-.672a1.673,1.673,0,0,1-2.008,0h-.671a1.673,1.673,0,0,1-2.008,0h-.671a1.663,1.663,0,0,0-.419.054V87.5h6.593a.7.7,0,0,0,.693-.7V68.473a.7.7,0,0,0-.693-.7H757.22a.7.7,0,0,0-.693.7v17.4l-2.182,2.366a1.409,1.409,0,0,1-.167-.663V75.38a.585.585,0,0,0-1.169,0v3.774l-3.98,6.176a5.667,5.667,0,0,0,.082,6.275l2.534,3.714a3.336,3.336,0,0,1,.581,1.764l.155,4.159a.584.584,0,0,0,.584.562h.022a.584.584,0,0,0,.562-.606l-.155-4.158a4.51,4.51,0,0,0-.783-2.38l-2.534-3.713a4.5,4.5,0,0,1-.065-4.984l3-4.651v6.264a2.587,2.587,0,0,0,.517,1.55l-.4.43a.584.584,0,0,0,.859.793l6.138-6.657a.789.789,0,0,1,1.27.917l-3.69,6.666a1.276,1.276,0,0,0,.132,1.439,3.35,3.35,0,0,1,.572,3.212,5.233,5.233,0,0,0-.292,1.606l-.071,3.05a.585.585,0,0,0,.57.6h.014a.584.584,0,0,0,.584-.571l.071-3.049a4.051,4.051,0,0,1,.227-1.248,4.523,4.523,0,0,0-.774-4.34.118.118,0,0,1-.012-.131l.928-1.678h14.549V92.94l-1.86-.906a1.787,1.787,0,0,0-2.13.44,2.093,2.093,0,0,0,.023,2.789l3.5,3.789a1.833,1.833,0,0,1,.466,1.236v4.118a.585.585,0,0,0,1.169,0v-4.118a2.972,2.972,0,0,0-.777-2.029l-3.5-3.789a.938.938,0,0,1-.009-1.219.621.621,0,0,1,.746-.167l2.7,1.314a.586.586,0,0,0,.84-.525v-10a.766.766,0,1,1,1.51,0v10a.585.585,0,0,0,1.169,0V89.553c0-.169.192-.312.419-.312h.671c.228,0,.419.143.419.312v4.321a.585.585,0,0,0,1.169,0V89.553c0-.169.192-.312.419-.312h.671c.228,0,.421.143.421.312v4.321a.584.584,0,0,0,1.168,0V89.553c0-.169.192-.312.419-.312h.672c.227,0,.419.143.419.312v4.321a.648.648,0,0,0,.031.19l.55,1.6a2.918,2.918,0,0,1,.145,1.178.584.584,0,0,0,.534.63.343.343,0,0,0,.049,0,.584.584,0,0,0,.582-.535,4.087,4.087,0,0,0-.205-1.656l-.518-1.505v-3.7a2.578,2.578,0,0,0,1.917-2.5V67.694a2.591,2.591,0,0,0-2.589-2.588ZM760.3,89l.83-1.5h13.073V89Zm15.828-7.177a1.988,1.988,0,0,0-1.921,1.949h-1.876a.419.419,0,0,1-.419-.418V80.832a.419.419,0,0,1,.419-.419h2.629a.584.584,0,0,0,0-1.168h-2.629a1.588,1.588,0,0,0-1.588,1.588v2.517a1.589,1.589,0,0,0,1.588,1.588h1.873v1.392H761.779l.638-1.154a1.957,1.957,0,0,0-3.151-2.274l-1.573,1.7V68.942h26.477V86.328h-6.117V84.936h2.122a1.589,1.589,0,0,0,1.588-1.588V80.832a1.588,1.588,0,0,0-1.588-1.588H777.3a.584.584,0,1,0,0,1.168h2.877a.419.419,0,0,1,.419.419v2.517a.419.419,0,0,1-.419.418h-2.125a1.988,1.988,0,0,0-1.92-1.949Z" transform="translate(-748.121 -65.106)" fill="#fff"></path><path id="Path_18805" data-name="Path 18805" d="M755.04,76.538v-.95a.584.584,0,1,0-1.168,0v.95a.584.584,0,1,0,1.168,0Z" transform="translate(-747.208 -63.535)" fill="#fff"></path><path id="Path_18806" data-name="Path 18806" d="M780.741,94.038a.583.583,0,0,0-.805.185l-.716,1.144a3.279,3.279,0,0,0-.495,1.746v2.714a.584.584,0,1,0,1.168,0V97.114a2.118,2.118,0,0,1,.318-1.126l.716-1.144a.584.584,0,0,0-.185-.805Z" transform="translate(-743.262 -60.527)" fill="#fff"></path><path id="Path_18807" data-name="Path 18807" d="M770.909,72.955h4.375a.584.584,0,1,0,0-1.168h-4.375a.584.584,0,0,0,0,1.168Z" transform="translate(-744.596 -64.045)" fill="#fff"></path><path id="Path_18808" data-name="Path 18808" d="M778.984,74.684a.585.585,0,0,0-.584-.584h-7.491a.584.584,0,0,0,0,1.168H778.4A.584.584,0,0,0,778.984,74.684Z" transform="translate(-744.596 -63.678)" fill="#fff"></path></g><g id="Group_2267" data-name="Group 2267" transform="translate(11.331 5.819)"><path id="Path_18809" data-name="Path 18809" d="M766.113,79.822H759.38a1.482,1.482,0,0,1-1.48-1.48V71.608a1.482,1.482,0,0,1,1.48-1.48h6.734a1.482,1.482,0,0,1,1.481,1.48v6.735A1.482,1.482,0,0,1,766.113,79.822Zm-6.734-8.6a.39.39,0,0,0-.389.389v6.735a.39.39,0,0,0,.389.389h6.734a.4.4,0,0,0,.391-.389V71.608a.39.39,0,0,0-.391-.389Z" transform="translate(-757.9 -70.128)" fill="#fff"></path></g></g><g id="Group_9234" data-name="Group 9234" transform="translate(545.098 986.16)"><g id="Group_9230" data-name="Group 9230" transform="translate(0 0)" clip-path="url(#clip-path-5)"><path id="Path_47358" data-name="Path 47358" d="M31.976,15.87A1.7,1.7,0,0,0,30.69,14.4a13.519,13.519,0,0,0-6.472,0,1.7,1.7,0,0,0-1.284,1.474l-.212,2.083a10.752,10.752,0,0,0-1.231.714l-1.913-.86a1.7,1.7,0,0,0-1.92.373,13.592,13.592,0,0,0-3.235,5.607,1.7,1.7,0,0,0,.638,1.85l1.7,1.225a11.093,11.093,0,0,0,0,1.425l-1.7,1.225a1.7,1.7,0,0,0-.638,1.85,13.592,13.592,0,0,0,3.235,5.607,1.7,1.7,0,0,0,1.92.373l1.913-.86a10.738,10.738,0,0,0,1.231.712l.212,2.085a1.7,1.7,0,0,0,1.284,1.474,13.561,13.561,0,0,0,6.472,0,1.7,1.7,0,0,0,1.286-1.474l.21-2.085a10.379,10.379,0,0,0,1.233-.712l1.912.86a1.7,1.7,0,0,0,1.92-.373,13.581,13.581,0,0,0,3.238-5.607,1.7,1.7,0,0,0-.639-1.85l-1.7-1.225a10.509,10.509,0,0,0,0-1.425l1.7-1.225a1.7,1.7,0,0,0,.639-1.85,13.581,13.581,0,0,0-3.238-5.607,1.7,1.7,0,0,0-1.92-.373l-1.912.86a10.881,10.881,0,0,0-1.233-.714ZM28.73,17.477l.183,1.811a1.7,1.7,0,0,0,1.1,1.42,7.256,7.256,0,0,1,2.118,1.221,1.692,1.692,0,0,0,1.774.239l1.664-.745a10.3,10.3,0,0,1,1.272,2.2L35.362,24.7a1.689,1.689,0,0,0-.678,1.657,7.388,7.388,0,0,1,0,2.444,1.691,1.691,0,0,0,.678,1.659l1.477,1.067a10.375,10.375,0,0,1-1.274,2.2L33.9,32.983a1.692,1.692,0,0,0-1.774.239,7.256,7.256,0,0,1-2.118,1.221,1.7,1.7,0,0,0-1.1,1.42l-.183,1.811a10.177,10.177,0,0,1-2.549,0L26,35.863a1.706,1.706,0,0,0-1.1-1.42,7.309,7.309,0,0,1-2.12-1.221,1.689,1.689,0,0,0-1.772-.239l-1.662.745a10.156,10.156,0,0,1-1.272-2.2l1.474-1.067a1.691,1.691,0,0,0,.678-1.659,7.388,7.388,0,0,1,0-2.444,1.689,1.689,0,0,0-.678-1.657l-1.477-1.067a10.31,10.31,0,0,1,1.275-2.2l1.662.745a1.689,1.689,0,0,0,1.772-.239,7.309,7.309,0,0,1,2.12-1.221,1.706,1.706,0,0,0,1.1-1.42l.183-1.811a10.019,10.019,0,0,1,2.549,0m-1.274,4.364a5.735,5.735,0,1,0,5.733,5.735,5.736,5.736,0,0,0-5.733-5.735m0,3.394a2.341,2.341,0,1,1-2.342,2.341,2.342,2.342,0,0,1,2.342-2.341" transform="translate(9.993 9.749)" fill="#fff" fill-rule="evenodd"></path><path id="Path_47359" data-name="Path 47359" d="M22.7,0A1.7,1.7,0,1,1,21,1.7,1.7,1.7,0,0,1,22.7,0" transform="translate(14.619 0.001)" fill="#fff" fill-rule="evenodd"></path><path id="Path_47360" data-name="Path 47360" d="M45.392,19.7A1.7,1.7,0,1,1,43.7,18a1.7,1.7,0,0,1,1.7,1.7" transform="translate(29.238 12.531)" fill="#fff" fill-rule="evenodd"></path><path id="Path_47361" data-name="Path 47361" d="M40.4,37.395a1.7,1.7,0,1,1,0-2.4,1.7,1.7,0,0,1,0,2.4" transform="translate(26.111 24.018)" fill="#fff" fill-rule="evenodd"></path><path id="Path_47362" data-name="Path 47362" d="M4.962,37.437a1.7,1.7,0,1,1,2.4,0,1.7,1.7,0,0,1-2.4,0" transform="translate(3.109 24.047)" fill="#fff" fill-rule="evenodd"></path><path id="Path_47363" data-name="Path 47363" d="M0,19.7A1.7,1.7,0,1,0,1.7,18,1.7,1.7,0,0,0,0,19.7" transform="translate(0 12.531)" fill="#fff" fill-rule="evenodd"></path><path id="Path_47364" data-name="Path 47364" d="M6.648,3.641a1.7,1.7,0,1,0,2.4,0,1.7,1.7,0,0,0-2.4,0" transform="translate(4.282 2.19)" fill="#fff" fill-rule="evenodd"></path><path id="Path_47365" data-name="Path 47365" d="M38.751,3.648a1.7,1.7,0,1,0,0,2.4,1.7,1.7,0,0,0,0-2.4" transform="translate(24.961 2.195)" fill="#fff" fill-rule="evenodd"></path><path id="Path_47366" data-name="Path 47366" d="M43.478,39.088h0A5.088,5.088,0,0,0,38.39,34H18.039a5.089,5.089,0,0,0-5.088,5.088h0a5.09,5.09,0,0,0,5.088,5.088H38.39A5.09,5.09,0,0,0,43.478,39.088Zm-3.394,0a1.7,1.7,0,0,1-1.694,1.7H18.039a1.7,1.7,0,0,1-1.7-1.7h0a1.7,1.7,0,0,1,1.7-1.7H38.39a1.7,1.7,0,0,1,1.694,1.7" transform="translate(9.016 23.669)" fill="#fff" fill-rule="evenodd"></path><path id="Path_47367" data-name="Path 47367" d="M28.022,40.7a3.393,3.393,0,0,1-6.786,0,1.7,1.7,0,1,0-3.391,0,6.784,6.784,0,1,0,13.567,0,1.7,1.7,0,1,0-3.391,0" transform="translate(12.423 27.15)" fill="#fff" fill-rule="evenodd"></path><path id="Path_47368" data-name="Path 47368" d="M33.112,28.732a25.339,25.339,0,0,0-5.869,10.591,1.7,1.7,0,0,0,3.277.889A21.953,21.953,0,0,1,35.6,31.037a1.7,1.7,0,1,0-2.49-2.305" transform="translate(18.924 19.623)" fill="#fff" fill-rule="evenodd"></path><path id="Path_47369" data-name="Path 47369" d="M23.121,49.162a22.852,22.852,0,0,0-5.5-9.768l0,0a18.022,18.022,0,0,1-1.744-22.742,1.695,1.695,0,1,0-2.78-1.939A21.409,21.409,0,0,0,15.17,41.733a19.481,19.481,0,0,1,4.68,8.318,1.7,1.7,0,1,0,3.272-.889Z" transform="translate(6.441 9.737)" fill="#fff" fill-rule="evenodd"></path><path id="Path_47370" data-name="Path 47370" d="M17.462,14.969A18.04,18.04,0,0,1,44.028,35.635a1.7,1.7,0,0,0,3.246.979A21.428,21.428,0,0,0,15.71,12.067a1.695,1.695,0,1,0,1.752,2.9Z" transform="translate(10.365 6.265)" fill="#fff" fill-rule="evenodd"></path><path id="Path_47371" data-name="Path 47371" d="M21,5.7v1.7a1.7,1.7,0,0,0,3.392,0V5.7A1.7,1.7,0,0,0,21,5.7" transform="translate(14.619 2.785)" fill="#fff" fill-rule="evenodd"></path><path id="Path_47372" data-name="Path 47372" d="M40.392,18H38.7a1.7,1.7,0,1,0,0,3.392h1.7a1.7,1.7,0,1,0,0-3.392" transform="translate(25.757 12.531)" fill="#fff" fill-rule="evenodd"></path><path id="Path_47373" data-name="Path 47373" d="M38.112,32.653l-1.2-1.2a1.7,1.7,0,0,0-2.4,2.4l1.2,1.2a1.7,1.7,0,0,0,2.4-2.4" transform="translate(23.682 21.551)" fill="#fff" fill-rule="evenodd"></path><path id="Path_47374" data-name="Path 47374" d="M10.2,35.147l1.2-1.2A1.7,1.7,0,1,0,9,31.55l-1.2,1.2a1.7,1.7,0,1,0,2.4,2.4" transform="translate(5.083 21.618)" fill="#fff" fill-rule="evenodd"></path><path id="Path_47375" data-name="Path 47375" d="M5.7,21.392h1.7a1.7,1.7,0,1,0,0-3.392H5.7a1.7,1.7,0,1,0,0,3.392" transform="translate(2.785 12.531)" fill="#fff" fill-rule="evenodd"></path><path id="Path_47376" data-name="Path 47376" d="M9.484,8.821l1.2,1.2a1.7,1.7,0,1,0,2.4-2.4l-1.2-1.2a1.7,1.7,0,0,0-2.4,2.4" transform="translate(6.257 4.126)" fill="#fff" fill-rule="evenodd"></path><path id="Path_47377" data-name="Path 47377" d="M34.063,6.484l-1.2,1.2a1.7,1.7,0,1,0,2.4,2.4l1.2-1.2a1.7,1.7,0,0,0-2.4-2.4" transform="translate(22.532 4.169)" fill="#fff" fill-rule="evenodd"></path></g></g></g></svg>